<svg xmlns="http://www.w3.org/2000/svg" xmlns:xlink="http://www.w3.org/1999/xlink" width="630" height="400" viewBox="0 0 630 400"><rect width="100%" height="100%" fill="#DDDDDD"/><path d="M161.49 169.27L143.26 191.59L141.13 194.22Q142.92 193.33 144.98 192.84Q147.04 192.35 149.42 192.35L149.42 192.35Q152.91 192.35 156.20 193.50Q159.49 194.65 162 196.96Q164.51 199.28 166.04 202.72Q167.57 206.16 167.57 210.75L167.57 210.75Q167.57 215.05 166.00 218.81Q164.42 222.57 161.57 225.37Q158.73 228.18 154.71 229.79Q150.69 231.41 145.85 231.41L145.85 231.41Q140.92 231.41 137.01 229.84Q133.10 228.26 130.34 225.44Q127.57 222.61 126.11 218.64Q124.64 214.66 124.64 209.82L124.64 209.82Q124.64 205.48 126.41 200.91Q128.17 196.35 131.87 191.42L131.87 191.42L146.53 171.74Q147.29 170.72 148.76 170.00Q150.23 169.27 152.14 169.27L152.14 169.27L161.49 169.27ZM145.64 222.82L145.64 222.82Q148.14 222.82 150.25 221.97Q152.35 221.12 153.86 219.59Q155.37 218.06 156.22 216.00Q157.07 213.94 157.07 211.52L157.07 211.52Q157.07 208.88 156.26 206.78Q155.45 204.68 153.97 203.21Q152.48 201.74 150.40 200.98Q148.31 200.21 145.81 200.21L145.81 200.21Q143.30 200.21 141.26 201.06Q139.22 201.91 137.77 203.42Q136.33 204.93 135.52 206.99Q134.72 209.05 134.72 211.43L134.72 211.43Q134.72 213.98 135.42 216.09Q136.12 218.19 137.50 219.68Q138.88 221.17 140.92 221.99Q142.96 222.82 145.64 222.82ZM180.49 187.38L174.96 186.40Q175.60 181.98 177.43 178.64Q179.25 175.31 182.00 173.08Q184.74 170.85 188.29 169.72Q191.84 168.59 195.91 168.59L195.91 168.59Q200.16 168.59 203.59 169.80Q207.01 171.02 209.43 173.16Q211.85 175.31 213.15 178.20Q214.44 181.09 214.44 184.45L214.44 184.45Q214.44 187.38 213.79 189.61Q213.13 191.84 211.90 193.50Q210.66 195.16 208.84 196.30Q207.01 197.45 204.71 198.22L204.71 198.22Q210.24 199.96 212.96 203.53Q215.68 207.10 215.68 212.50L215.68 212.50Q215.68 217.09 213.98 220.61Q212.28 224.14 209.39 226.54Q206.50 228.94 202.69 230.18Q198.89 231.41 194.64 231.41L194.64 231.41Q190.01 231.41 186.56 230.35Q183.12 229.28 180.57 227.20Q178.02 225.12 176.24 222.10Q174.45 219.08 173.18 215.13L173.18 215.13L177.81 213.22Q179.64 212.45 181.23 212.81Q182.82 213.18 183.55 214.54L183.55 214.54Q184.31 216.02 185.23 217.47Q186.14 218.91 187.41 220.04Q188.69 221.17 190.41 221.87Q192.13 222.57 194.51 222.57L194.51 222.57Q197.19 222.57 199.19 221.70Q201.19 220.83 202.52 219.42Q203.86 218.02 204.52 216.30Q205.18 214.58 205.18 212.84L205.18 212.84Q205.18 210.63 204.71 208.82Q204.25 207.01 202.76 205.74Q201.27 204.46 198.49 203.74Q195.70 203.02 191.03 203.02L191.03 203.02L191.03 195.54Q194.90 195.50 197.44 194.82Q200.00 194.14 201.50 192.92Q203.01 191.71 203.61 190.01Q204.20 188.31 204.20 186.27L204.20 186.27Q204.20 181.94 201.78 179.69Q199.36 177.43 195.32 177.43L195.32 177.43Q193.45 177.43 191.88 177.96Q190.31 178.50 189.05 179.45Q187.80 180.41 186.95 181.68Q186.10 182.96 185.67 184.49L185.67 184.49Q184.95 186.44 183.78 187.08Q182.61 187.72 180.49 187.38L180.49 187.38ZM266.85 200.00L266.85 200.00Q266.85 208.03 265.13 213.96Q263.41 219.89 260.37 223.76Q257.33 227.63 253.18 229.52Q249.04 231.41 244.24 231.41L244.24 231.41Q239.44 231.41 235.33 229.52Q231.23 227.63 228.22 223.76Q225.20 219.89 223.50 213.96Q221.80 208.03 221.80 200.00L221.80 200.00Q221.80 191.93 223.50 186.02Q225.20 180.11 228.22 176.24Q231.23 172.38 235.33 170.48Q239.44 168.59 244.24 168.59L244.24 168.59Q249.04 168.59 253.18 170.48Q257.33 172.38 260.37 176.24Q263.41 180.11 265.13 186.02Q266.85 191.93 266.85 200.00ZM256.01 200.00L256.01 200.00Q256.01 193.33 255.03 188.95Q254.06 184.57 252.42 181.98Q250.78 179.39 248.66 178.35Q246.53 177.31 244.24 177.31L244.24 177.31Q241.99 177.31 239.88 178.35Q237.78 179.39 236.16 181.98Q234.55 184.57 233.59 188.95Q232.64 193.33 232.64 200.00L232.64 200.00Q232.64 206.67 233.59 211.05Q234.55 215.43 236.16 218.02Q237.78 220.61 239.88 221.65Q241.99 222.70 244.24 222.70L244.24 222.70Q246.53 222.70 248.66 221.65Q250.78 220.61 252.42 218.02Q254.06 215.43 255.03 211.05Q256.01 206.67 256.01 200.00ZM334.34 216.66L328.77 222.14L314.36 207.74L299.83 222.23L294.26 216.75L308.80 202.17L294.94 188.31L300.47 182.79L314.32 196.64L328.09 182.87L333.70 188.40L319.89 202.21L334.34 216.66ZM371.14 207.57L389.84 207.57L389.84 187.46Q389.84 184.62 390.23 181.17L390.23 181.17L371.14 207.57ZM398.98 207.57L406.72 207.57L406.72 213.64Q406.72 214.49 406.16 215.11Q405.61 215.73 404.59 215.73L404.59 215.73L398.98 215.73L398.98 230.73L389.84 230.73L389.84 215.73L363.92 215.73Q362.86 215.73 362.05 215.07Q361.24 214.41 361.03 213.43L361.03 213.43L359.92 208.12L389.04 169.23L398.98 169.23L398.98 207.57ZM456.06 200.00L456.06 200.00Q456.06 208.03 454.34 213.96Q452.62 219.89 449.58 223.76Q446.54 227.63 442.39 229.52Q438.25 231.41 433.45 231.41L433.45 231.41Q428.65 231.41 424.54 229.52Q420.44 227.63 417.43 223.76Q414.41 219.89 412.71 213.96Q411.01 208.03 411.01 200.00L411.01 200.00Q411.01 191.93 412.71 186.02Q414.41 180.11 417.43 176.24Q420.44 172.38 424.54 170.48Q428.65 168.59 433.45 168.59L433.45 168.59Q438.25 168.59 442.39 170.48Q446.54 172.38 449.58 176.24Q452.62 180.11 454.34 186.02Q456.06 191.93 456.06 200.00ZM445.22 200.00L445.22 200.00Q445.22 193.33 444.24 188.95Q443.27 184.57 441.63 181.98Q439.99 179.39 437.87 178.35Q435.74 177.31 433.45 177.31L433.45 177.31Q431.20 177.31 429.09 178.35Q426.99 179.39 425.37 181.98Q423.76 184.57 422.80 188.95Q421.85 193.33 421.85 200.00L421.85 200.00Q421.85 206.67 422.80 211.05Q423.76 215.43 425.37 218.02Q426.99 220.61 429.09 221.65Q431.20 222.70 433.45 222.70L433.45 222.70Q435.74 222.70 437.87 221.65Q439.99 220.61 441.63 218.02Q443.27 215.43 444.24 211.05Q445.22 206.67 445.22 200.00ZM505.36 200.00L505.36 200.00Q505.36 208.03 503.64 213.96Q501.92 219.89 498.88 223.76Q495.84 227.63 491.69 229.52Q487.55 231.41 482.75 231.41L482.75 231.41Q477.95 231.41 473.84 229.52Q469.74 227.63 466.73 223.76Q463.71 219.89 462.01 213.96Q460.31 208.03 460.31 200.00L460.31 200.00Q460.31 191.93 462.01 186.02Q463.71 180.11 466.73 176.24Q469.74 172.38 473.84 170.48Q477.95 168.59 482.75 168.59L482.75 168.59Q487.55 168.59 491.69 170.48Q495.84 172.38 498.88 176.24Q501.92 180.11 503.64 186.02Q505.36 191.93 505.36 200.00ZM494.52 200.00L494.52 200.00Q494.52 193.33 493.54 188.95Q492.57 184.57 490.93 181.98Q489.29 179.39 487.17 178.35Q485.04 177.31 482.75 177.31L482.75 177.31Q480.50 177.31 478.39 178.35Q476.29 179.39 474.67 181.98Q473.06 184.57 472.10 188.95Q471.15 193.33 471.15 200.00L471.15 200.00Q471.15 206.67 472.10 211.05Q473.06 215.43 474.67 218.02Q476.29 220.61 478.39 221.65Q480.50 222.70 482.75 222.70L482.75 222.70Q485.04 222.70 487.17 221.65Q489.29 220.61 490.93 218.02Q492.57 215.43 493.54 211.05Q494.52 206.67 494.52 200.00Z" fill="#999999"/></svg>